<?xml version="1.0" encoding="UTF-8"?>
<svg xmlns="http://www.w3.org/2000/svg" xmlns:xlink="http://www.w3.org/1999/xlink" width="500px" height="274px" viewBox="0 0 499 274" version="1.1">
<defs>
<clipPath id="clip1">
  <path d="M 0 58 L 494.640625 58 L 494.640625 259.644531 L 0 259.644531 Z M 0 58 "/>
</clipPath>
<clipPath id="clip2">
  <path d="M 0 24 L 494.640625 24 L 494.640625 123 L 0 123 Z M 0 24 "/>
</clipPath>
<clipPath id="clip3">
  <path d="M 0 0 L 173 0 L 173 259.644531 L 0 259.644531 Z M 0 0 "/>
</clipPath>
</defs>
<g id="surface1">
<rect x="0" y="0" width="499" height="274" style="fill:rgb(30.980392%,27.843137%,66.27451%);fill-opacity:1;stroke:none;"/>
<g clip-path="url(#clip1)" clip-rule="nonzero">
<path style="fill:none;stroke-width:10;stroke-linecap:butt;stroke-linejoin:miter;stroke:rgb(92.941176%,73.72549%,99.607843%);stroke-opacity:1;stroke-miterlimit:4;" d="M 1.705536 363.734632 C -20.140374 417.933708 403.597554 323.028997 695.959043 717.931227 C 988.333072 1112.845974 1579.063048 166.490049 1610.000971 248.001454 " transform="matrix(0.311486,0,0,0.312073,0,0)"/>
</g>
<g clip-path="url(#clip2)" clip-rule="nonzero">
<path style="fill:none;stroke-width:6;stroke-linecap:butt;stroke-linejoin:miter;stroke:rgb(92.941176%,73.72549%,99.607843%);stroke-opacity:1;stroke-miterlimit:4;" d="M 1.993972 358.001796 C 1.993972 358.001796 253.761194 -41.894759 728.000548 182.199019 C 1202.239902 406.305315 1611.994943 332.516965 1611.994943 332.516965 " transform="matrix(0.311486,0,0,0.312073,0,0)"/>
</g>
<g clip-path="url(#clip3)" clip-rule="nonzero">
<path style="fill:none;stroke-width:5;stroke-linecap:butt;stroke-linejoin:miter;stroke:rgb(92.941176%,73.72549%,99.607843%);stroke-opacity:1;stroke-miterlimit:4;" d="M 0 477.152144 C 0 477.152144 924.413092 653.205263 322.283614 800.656792 C -279.845864 948.10832 514.959027 -15.996864 514.959027 -15.996864 " transform="matrix(0.311486,0,0,0.312073,0,0)"/>
</g>
<path style="fill:none;stroke-width:6;stroke-linecap:butt;stroke-linejoin:miter;stroke:rgb(92.941176%,73.72549%,99.607843%);stroke-opacity:1;stroke-miterlimit:4;" d="M -4.000485 504.00134 C 486.002536 808.004334 539.576434 591.433337 800.147232 323.254305 C 1060.71803 55.075274 1670.108577 657.523666 1612.145431 581.957887 " transform="matrix(0.311486,0,0,0.312073,0,0)"/>
<path style="fill:none;stroke-width:3;stroke-linecap:butt;stroke-linejoin:miter;stroke:rgb(92.941176%,73.72549%,99.607843%);stroke-opacity:1;stroke-miterlimit:4;" d="M 1.993972 286.003393 C 1.993972 286.003393 463.542131 142.970404 832.652743 492.523152 C 1201.775896 842.088418 1611.994943 272.447365 1611.994943 272.447365 " transform="matrix(0.311486,0,0,0.312073,0,0)"/>
<path style=" stroke:none;fill-rule:nonzero;fill:rgb(100%,100%,100%);fill-opacity:1;" d="M 155.121094 129.601562 C 156.996094 130.230469 158.464844 131.21875 159.527344 132.566406 C 160.589844 133.882812 161.121094 135.488281 161.121094 137.375 C 161.121094 140.128906 159.964844 142.257812 157.652344 143.753906 C 155.339844 145.253906 151.992188 146.003906 147.617188 146.003906 L 129.890625 146.003906 L 129.890625 114.546875 L 146.679688 114.546875 C 150.867188 114.546875 154.054688 115.292969 156.246094 116.792969 C 158.433594 118.261719 159.527344 120.253906 159.527344 122.769531 C 159.527344 124.265625 159.136719 125.617188 158.355469 126.8125 C 157.605469 127.980469 156.527344 128.910156 155.121094 129.601562 Z M 139.082031 120.972656 L 139.082031 127.039062 L 145.457031 127.039062 C 148.585938 127.039062 150.148438 126.019531 150.148438 123.984375 C 150.148438 121.976562 148.585938 120.972656 145.457031 120.972656 Z M 146.867188 139.578125 C 150.117188 139.578125 151.742188 138.511719 151.742188 136.386719 C 151.742188 134.257812 150.117188 133.195312 146.867188 133.195312 L 139.082031 133.195312 L 139.082031 139.578125 Z M 193.644531 121.644531 L 193.644531 146.003906 L 185.160156 146.003906 L 185.160156 143.394531 C 184.21875 144.386719 183.09375 145.132812 181.78125 145.644531 C 180.46875 146.152344 179.078125 146.40625 177.609375 146.40625 C 174.324219 146.40625 171.699219 145.476562 169.730469 143.621094 C 167.792969 141.761719 166.820312 138.976562 166.820312 135.261719 L 166.820312 121.644531 L 175.730469 121.644531 L 175.730469 133.871094 C 175.730469 135.695312 176.089844 137.03125 176.8125 137.867188 C 177.53125 138.707031 178.578125 139.128906 179.953125 139.128906 C 181.359375 139.128906 182.5 138.664062 183.375 137.734375 C 184.28125 136.773438 184.734375 135.324219 184.734375 133.375 L 184.734375 121.644531 Z M 210.03125 146.40625 C 207.90625 146.40625 205.808594 146.183594 203.746094 145.734375 C 201.683594 145.253906 200.027344 144.640625 198.777344 143.890625 L 201.449219 138.046875 C 202.605469 138.738281 203.980469 139.292969 205.574219 139.710938 C 207.171875 140.101562 208.75 140.296875 210.3125 140.296875 C 211.75 140.296875 212.765625 140.160156 213.359375 139.890625 C 213.984375 139.589844 214.296875 139.171875 214.296875 138.632812 C 214.296875 138.09375 213.921875 137.71875 213.171875 137.507812 C 212.453125 137.269531 211.296875 137.046875 209.703125 136.835938 C 207.671875 136.59375 205.933594 136.28125 204.496094 135.890625 C 203.089844 135.503906 201.871094 134.78125 200.839844 133.734375 C 199.808594 132.6875 199.292969 131.21875 199.292969 129.332031 C 199.292969 127.773438 199.777344 126.394531 200.746094 125.195312 C 201.714844 123.96875 203.121094 123.007812 204.964844 122.320312 C 206.839844 121.601562 209.078125 121.242188 211.671875 121.242188 C 213.515625 121.242188 215.34375 121.421875 217.160156 121.78125 C 218.972656 122.140625 220.488281 122.648438 221.707031 123.308594 L 219.035156 129.105469 C 216.785156 127.90625 214.34375 127.308594 211.71875 127.308594 C 210.3125 127.308594 209.28125 127.472656 208.625 127.800781 C 207.96875 128.101562 207.640625 128.507812 207.640625 129.015625 C 207.640625 129.585938 208 129.988281 208.71875 130.230469 C 209.4375 130.4375 210.625 130.664062 212.28125 130.902344 C 214.375 131.203125 216.109375 131.546875 217.488281 131.9375 C 218.863281 132.328125 220.050781 133.046875 221.050781 134.09375 C 222.082031 135.113281 222.597656 136.550781 222.597656 138.40625 C 222.597656 139.9375 222.113281 141.3125 221.144531 142.542969 C 220.175781 143.742188 218.738281 144.683594 216.832031 145.375 C 214.953125 146.0625 212.6875 146.40625 210.03125 146.40625 Z M 244.398438 121.242188 C 247.558594 121.242188 250.089844 122.140625 251.996094 123.9375 C 253.933594 125.734375 254.902344 128.445312 254.902344 132.070312 L 254.902344 146.003906 L 245.992188 146.003906 L 245.992188 133.464844 C 245.992188 130.140625 244.601562 128.476562 241.820312 128.476562 C 240.289062 128.476562 239.054688 128.957031 238.113281 129.914062 C 237.207031 130.875 236.753906 132.3125 236.753906 134.230469 L 236.753906 146.003906 L 227.84375 146.003906 L 227.84375 112.660156 L 236.753906 112.660156 L 236.753906 123.894531 C 237.722656 123.023438 238.867188 122.363281 240.179688 121.914062 C 241.492188 121.464844 242.898438 121.242188 244.398438 121.242188 Z M 287.554688 129.601562 C 289.433594 130.230469 290.902344 131.21875 291.964844 132.566406 C 293.027344 133.882812 293.558594 135.488281 293.558594 137.375 C 293.558594 140.128906 292.402344 142.257812 290.089844 143.753906 C 287.773438 145.253906 284.429688 146.003906 280.054688 146.003906 L 262.328125 146.003906 L 262.328125 114.546875 L 279.113281 114.546875 C 283.304688 114.546875 286.492188 115.292969 288.683594 116.792969 C 290.871094 118.261719 291.964844 120.253906 291.964844 122.769531 C 291.964844 124.265625 291.574219 125.617188 290.792969 126.8125 C 290.042969 127.980469 288.964844 128.910156 287.554688 129.601562 Z M 271.519531 120.972656 L 271.519531 127.039062 L 277.894531 127.039062 C 281.023438 127.039062 282.585938 126.019531 282.585938 123.984375 C 282.585938 121.976562 281.023438 120.972656 277.894531 120.972656 Z M 279.304688 139.578125 C 282.554688 139.578125 284.179688 138.511719 284.179688 136.386719 C 284.179688 134.257812 282.554688 133.195312 279.304688 133.195312 L 271.519531 133.195312 L 271.519531 139.578125 Z M 326.085938 121.644531 L 326.085938 146.003906 L 317.597656 146.003906 L 317.597656 143.394531 C 316.65625 144.386719 315.53125 145.132812 314.21875 145.644531 C 312.90625 146.152344 311.515625 146.40625 310.046875 146.40625 C 306.761719 146.40625 304.136719 145.476562 302.167969 143.621094 C 300.230469 141.761719 299.257812 138.976562 299.257812 135.261719 L 299.257812 121.644531 L 308.167969 121.644531 L 308.167969 133.871094 C 308.167969 135.695312 308.527344 137.03125 309.246094 137.867188 C 309.96875 138.707031 311.015625 139.128906 312.390625 139.128906 C 313.796875 139.128906 314.9375 138.664062 315.8125 137.734375 C 316.71875 136.773438 317.171875 135.324219 317.171875 133.375 L 317.171875 121.644531 Z M 342.46875 146.40625 C 340.339844 146.40625 338.25 146.183594 336.183594 145.734375 C 334.121094 145.253906 332.464844 144.640625 331.210938 143.890625 L 333.882812 138.046875 C 335.042969 138.738281 336.417969 139.292969 338.011719 139.710938 C 339.605469 140.101562 341.1875 140.296875 342.75 140.296875 C 344.1875 140.296875 345.203125 140.160156 345.800781 139.890625 C 346.421875 139.589844 346.738281 139.171875 346.738281 138.632812 C 346.738281 138.09375 346.359375 137.71875 345.609375 137.507812 C 344.890625 137.269531 343.734375 137.046875 342.140625 136.835938 C 340.109375 136.59375 338.375 136.28125 336.933594 135.890625 C 335.527344 135.503906 334.308594 134.78125 333.277344 133.734375 C 332.246094 132.6875 331.730469 131.21875 331.730469 129.332031 C 331.730469 127.773438 332.210938 126.394531 333.183594 125.195312 C 334.152344 123.96875 335.558594 123.007812 337.40625 122.320312 C 339.28125 121.601562 341.511719 121.242188 344.109375 121.242188 C 345.953125 121.242188 347.78125 121.421875 349.597656 121.78125 C 351.410156 122.140625 352.925781 122.648438 354.144531 123.308594 L 351.472656 129.105469 C 349.222656 127.90625 346.78125 127.308594 344.15625 127.308594 C 342.75 127.308594 341.71875 127.472656 341.0625 127.800781 C 340.402344 128.101562 340.078125 128.507812 340.078125 129.015625 C 340.078125 129.585938 340.433594 129.988281 341.15625 130.230469 C 341.875 130.4375 343.0625 130.664062 344.71875 130.902344 C 346.8125 131.203125 348.550781 131.546875 349.921875 131.9375 C 351.300781 132.328125 352.488281 133.046875 353.488281 134.09375 C 354.519531 135.113281 355.035156 136.550781 355.035156 138.40625 C 355.035156 139.9375 354.550781 141.3125 353.582031 142.542969 C 352.613281 143.742188 351.175781 144.683594 349.269531 145.375 C 347.390625 146.0625 345.125 146.40625 342.46875 146.40625 Z M 376.835938 121.242188 C 379.992188 121.242188 382.527344 122.140625 384.433594 123.9375 C 386.371094 125.734375 387.339844 128.445312 387.339844 132.070312 L 387.339844 146.003906 L 378.429688 146.003906 L 378.429688 133.464844 C 378.429688 130.140625 377.039062 128.476562 374.257812 128.476562 C 372.722656 128.476562 371.492188 128.957031 370.550781 129.914062 C 369.644531 130.875 369.191406 132.3125 369.191406 134.230469 L 369.191406 146.003906 L 360.28125 146.003906 L 360.28125 112.660156 L 369.191406 112.660156 L 369.191406 123.894531 C 370.160156 123.023438 371.304688 122.363281 372.613281 121.914062 C 373.929688 121.464844 375.335938 121.242188 376.835938 121.242188 Z M 376.835938 121.242188 "/>
</g>
</svg>
